<?xml version="1.0" encoding="UTF-8"?>
<svg width="32px" height="32px" viewBox="0 0 32 32" version="1.1" xmlns="http://www.w3.org/2000/svg" xmlns:xlink="http://www.w3.org/1999/xlink">
    <!-- Generator: Sketch 55.2 (78181) - https://sketchapp.com -->
    <title>favicon</title>
    <desc>Created with Sketch.</desc>
    <g id="favicon" stroke="none" stroke-width="1" fill="none" fill-rule="evenodd">
        <rect id="Rectangle" stroke="#000000" fill="#F75656" transform="translate(16.000000, 11.000000) rotate(15.000000) translate(-16.000000, -11.000000) " x="14.5" y="1.5" width="3" height="19"></rect>
        <path d="M9.05709758,7 L22.9429024,7 C23.4951872,7 23.9429024,7.44771525 23.9429024,8 C23.9429024,8.01850069 23.942389,8.03699782 23.9413628,8.05547002 L22.9874714,25.225515 C22.8895462,26.9881683 22.6290615,27.8243653 22.1783526,28.5979772 C21.7276436,29.371589 21.0928505,29.9720947 20.2954289,30.3791975 C19.4980073,30.7863002 18.6486486,31 16.8832773,31 L15.1167227,31 C13.3513514,31 12.5019927,30.7863002 11.7045711,30.3791975 C10.9071495,29.9720947 10.2723564,29.371589 9.82164744,28.5979772 C9.37093849,27.8243653 9.11045379,26.9881683 9.01252861,25.225515 L8.05863722,8.05547002 C8.02800198,7.50403559 8.45019313,7.03217489 9.00162756,7.00153965 C9.02009976,7.00051341 9.03859689,7 9.05709758,7 Z" id="milk-tea" fill="#E1C3AD"></path>
        <path d="M9.05709758,7.5 C9.04322295,7.50012835 9.04322295,7.50012835 9.02936257,7.50076982 C8.75364535,7.51608745 8.54254978,7.7520178 8.5578674,8.02773501 L9.51175879,25.19778 C9.59890779,26.766462 9.80444435,27.5752041 10.2536741,28.3462769 C10.6561278,29.037062 11.2198737,29.5703579 11.9319193,29.9338742 C12.7267237,30.3396408 13.5456217,30.5 15.1167227,30.5 L16.8832773,30.5 C18.4543783,30.5 19.2732763,30.3396408 20.0680807,29.9338742 C20.7801263,29.5703579 21.3438722,29.037062 21.7463259,28.3462769 C22.1955556,27.5752041 22.4010922,26.766462 22.4882412,25.19778 L23.4421326,8.02773501 C23.4427741,8.01387463 23.4427741,8.01387463 23.4429024,8 C23.4429024,7.72385763 23.2190448,7.5 22.9429024,7.5 L9.05709758,7.5 Z" id="cup" stroke="#000000"></path>
        <g id="boba-grp" transform="translate(11.000000, 20.000000)" fill="#000000">
            <circle id="pearl" cx="1" cy="7" r="1"></circle>
            <circle id="pearl-copy-2" cx="1" cy="1" r="1"></circle>
            <circle id="pearl" cx="3" cy="4" r="1"></circle>
            <circle id="pearl" cx="7" cy="4" r="1"></circle>
            <circle id="pearl-copy" cx="9" cy="7" r="1"></circle>
            <circle id="pearl-copy-3" cx="9" cy="1" r="1"></circle>
            <circle id="pearl-copy-7" cx="5" cy="7" r="1"></circle>
            <circle id="pearl-copy-8" cx="5" cy="1" r="1"></circle>
        </g>
        <rect id="lid" stroke="#000000" fill="#000000" x="6.5" y="6.5" width="19" height="2" rx="1"></rect>
    </g>
</svg>